<?xml version="1.0" encoding="UTF-8" standalone="no"?>
<!DOCTYPE svg PUBLIC "-//W3C//DTD SVG 1.1//EN"
 "http://www.w3.org/Graphics/SVG/1.1/DTD/svg11.dtd">
<!-- Generated by graphviz version 12.2.1 (0)
 -->
<!-- Title: G Pages: 1 -->
<svg width="284pt" height="3605pt"
 viewBox="0.00 0.00 283.50 3605.00" xmlns="http://www.w3.org/2000/svg" xmlns:xlink="http://www.w3.org/1999/xlink">
<g id="graph0" class="graph" transform="scale(1 1) rotate(0) translate(4 3601)">
<title>G</title>
<polygon fill="white" stroke="none" points="-4,4 -4,-3601 279.5,-3601 279.5,4 -4,4"/>
<text text-anchor="middle" x="137.75" y="-3574" font-family="Times New Roman,serif" font-size="20.00">Full ERD for TMP_REAN_DF2</text>
<!-- REAN_00 -->
<g id="node1" class="node">
<title>REAN_00</title>
<text text-anchor="start" x="52.12" y="-1528.85" font-family="Bitstream-Vera Sans" font-size="7.00">REAN_00</text>
<polygon fill="none" stroke="black" points="36.62,-1522.5 36.62,-1524.5 96.12,-1524.5 96.12,-1522.5 36.62,-1522.5"/>
<text text-anchor="start" x="38.62" y="-1513.85" font-family="Bitstream-Vera Sans" font-size="7.00">&#45; ssn</text>
<text text-anchor="start" x="38.62" y="-1500.85" font-family="Bitstream-Vera Sans" font-size="7.00">&#45; unit</text>
<text text-anchor="start" x="38.62" y="-1487.85" font-family="Bitstream-Vera Sans" font-size="7.00">&#45; site</text>
<text text-anchor="start" x="38.62" y="-1474.85" font-family="Bitstream-Vera Sans" font-size="7.00">&#45; subsite</text>
<text text-anchor="start" x="38.62" y="-1461.85" font-family="Bitstream-Vera Sans" font-size="7.00">&#45; comment_admin</text>
<polygon fill="none" stroke="black" points="35.62,-1456.5 35.62,-1538.5 97.12,-1538.5 97.12,-1456.5 35.62,-1456.5"/>
</g>
<!-- REAN_01 -->
<g id="node2" class="node">
<title>REAN_01</title>
<text text-anchor="start" x="180.25" y="-3552.85" font-family="Bitstream-Vera Sans" font-size="7.00">REAN_01</text>
<polygon fill="none" stroke="black" points="164.75,-3546.5 164.75,-3548.5 224.25,-3548.5 224.25,-3546.5 164.75,-3546.5"/>
<text text-anchor="start" x="166.75" y="-3537.85" font-family="Bitstream-Vera Sans" font-size="7.00">&#45; ssn</text>
<text text-anchor="start" x="166.75" y="-3524.85" font-family="Bitstream-Vera Sans" font-size="7.00">&#45; rean_yearmon</text>
<text text-anchor="start" x="166.75" y="-3511.85" font-family="Bitstream-Vera Sans" font-size="7.00">&#45; rean_month</text>
<text text-anchor="start" x="166.75" y="-3498.85" font-family="Bitstream-Vera Sans" font-size="7.00">&#45; rean_year</text>
<text text-anchor="start" x="166.75" y="-3485.85" font-family="Bitstream-Vera Sans" font-size="7.00">&#45; analyst_banos</text>
<text text-anchor="start" x="166.75" y="-3472.85" font-family="Bitstream-Vera Sans" font-size="7.00">&#45; analyst_ortega</text>
<text text-anchor="start" x="166.75" y="-3459.85" font-family="Bitstream-Vera Sans" font-size="7.00">&#45; analyst_avilaand</text>
<text text-anchor="start" x="166.75" y="-3446.85" font-family="Bitstream-Vera Sans" font-size="7.00">&#45; analyst_avilaang</text>
<text text-anchor="start" x="166.75" y="-3433.85" font-family="Bitstream-Vera Sans" font-size="7.00">&#45; analyst_rattray</text>
<text text-anchor="start" x="166.75" y="-3420.85" font-family="Bitstream-Vera Sans" font-size="7.00">&#45; certot_rean</text>
<text text-anchor="start" x="166.75" y="-3407.85" font-family="Bitstream-Vera Sans" font-size="7.00">&#45; certot_df9</text>
<text text-anchor="start" x="166.75" y="-3394.85" font-family="Bitstream-Vera Sans" font-size="7.00">&#45; cuantot</text>
<text text-anchor="start" x="166.75" y="-3381.85" font-family="Bitstream-Vera Sans" font-size="7.00">&#45; patltot</text>
<text text-anchor="start" x="166.75" y="-3368.85" font-family="Bitstream-Vera Sans" font-size="7.00">&#45; tzactot</text>
<text text-anchor="start" x="166.75" y="-3355.85" font-family="Bitstream-Vera Sans" font-size="7.00">&#45; micctot</text>
<text text-anchor="start" x="166.75" y="-3342.85" font-family="Bitstream-Vera Sans" font-size="7.00">&#45; tlamtot</text>
<text text-anchor="start" x="166.75" y="-3329.85" font-family="Bitstream-Vera Sans" font-size="7.00">&#45; xolatot</text>
<text text-anchor="start" x="166.75" y="-3316.85" font-family="Bitstream-Vera Sans" font-size="7.00">&#45; metetot</text>
<text text-anchor="start" x="166.75" y="-3303.85" font-family="Bitstream-Vera Sans" font-size="7.00">&#45; coyotot</text>
<text text-anchor="start" x="166.75" y="-3290.85" font-family="Bitstream-Vera Sans" font-size="7.00">&#45; mazatot</text>
<text text-anchor="start" x="166.75" y="-3277.85" font-family="Bitstream-Vera Sans" font-size="7.00">&#45; aztetot</text>
<text text-anchor="start" x="166.75" y="-3264.85" font-family="Bitstream-Vera Sans" font-size="7.00">&#45; rtohemi</text>
<text text-anchor="start" x="166.75" y="-3251.85" font-family="Bitstream-Vera Sans" font-size="7.00">&#45; rtoeverted</text>
<text text-anchor="start" x="166.75" y="-3238.85" font-family="Bitstream-Vera Sans" font-size="7.00">&#45; tto</text>
<text text-anchor="start" x="166.75" y="-3225.85" font-family="Bitstream-Vera Sans" font-size="7.00">&#45; cto</text>
<polygon fill="none" stroke="black" points="163.75,-3220.5 163.75,-3562.5 225.25,-3562.5 225.25,-3220.5 163.75,-3220.5"/>
</g>
<!-- REAN_00&#45;&gt;REAN_01 -->
<g id="edge1" class="edge">
<title>REAN_00&#45;&gt;REAN_01</title>
<path fill="none" stroke="black" d="M68.03,-1553.68C71.31,-1810.93 87.9,-2878.15 141.12,-3207.5 144.67,-3229.47 149.95,-3252.54 155.81,-3274.63"/>
<polygon fill="none" stroke="black" points="71.53,-1553.86 67.91,-1543.91 64.53,-1553.95 71.53,-1553.86"/>
<text text-anchor="middle" x="147.19" y="-3267.98" font-family="Bitstream-Vera Sans" font-size="7.00">+ ssn</text>
<text text-anchor="middle" x="76.51" y="-1544.74" font-family="Bitstream-Vera Sans" font-size="7.00">+ ssn</text>
</g>
<!-- REAN_02 -->
<g id="node3" class="node">
<title>REAN_02</title>
<text text-anchor="start" x="180.25" y="-3184.85" font-family="Bitstream-Vera Sans" font-size="7.00">REAN_02</text>
<polygon fill="none" stroke="black" points="173,-3178.5 173,-3180.5 216,-3180.5 216,-3178.5 173,-3178.5"/>
<text text-anchor="start" x="175" y="-3169.85" font-family="Bitstream-Vera Sans" font-size="7.00">&#45; ssn</text>
<text text-anchor="start" x="175" y="-3156.85" font-family="Bitstream-Vera Sans" font-size="7.00">&#45; rtoincised</text>
<text text-anchor="start" x="175" y="-3143.85" font-family="Bitstream-Vera Sans" font-size="7.00">&#45; rtopunctate</text>
<text text-anchor="start" x="175" y="-3130.85" font-family="Bitstream-Vera Sans" font-size="7.00">&#45; rtovase</text>
<text text-anchor="start" x="175" y="-3117.85" font-family="Bitstream-Vera Sans" font-size="7.00">&#45; rtomini</text>
<text text-anchor="start" x="175" y="-3104.85" font-family="Bitstream-Vera Sans" font-size="7.00">&#45; rtomolded</text>
<text text-anchor="start" x="175" y="-3091.85" font-family="Bitstream-Vera Sans" font-size="7.00">&#45; rtojar</text>
<text text-anchor="start" x="175" y="-3078.85" font-family="Bitstream-Vera Sans" font-size="7.00">&#45; ollatot</text>
<text text-anchor="start" x="175" y="-3065.85" font-family="Bitstream-Vera Sans" font-size="7.00">&#45; ollapatl</text>
<text text-anchor="start" x="175" y="-3052.85" font-family="Bitstream-Vera Sans" font-size="7.00">&#45; ollatzac</text>
<text text-anchor="start" x="175" y="-3039.85" font-family="Bitstream-Vera Sans" font-size="7.00">&#45; ollamicc</text>
<text text-anchor="start" x="175" y="-3026.85" font-family="Bitstream-Vera Sans" font-size="7.00">&#45; ollatlam</text>
<text text-anchor="start" x="175" y="-3013.85" font-family="Bitstream-Vera Sans" font-size="7.00">&#45; ollaxola</text>
<text text-anchor="start" x="175" y="-3000.85" font-family="Bitstream-Vera Sans" font-size="7.00">&#45; ollamete</text>
<text text-anchor="start" x="175" y="-2987.85" font-family="Bitstream-Vera Sans" font-size="7.00">&#45; rrollatot</text>
<text text-anchor="start" x="175" y="-2974.85" font-family="Bitstream-Vera Sans" font-size="7.00">&#45; rrollaxola</text>
<text text-anchor="start" x="175" y="-2961.85" font-family="Bitstream-Vera Sans" font-size="7.00">&#45; rrollamete</text>
<text text-anchor="start" x="175" y="-2948.85" font-family="Bitstream-Vera Sans" font-size="7.00">&#45; jartot</text>
<text text-anchor="start" x="175" y="-2935.85" font-family="Bitstream-Vera Sans" font-size="7.00">&#45; jarmicc</text>
<text text-anchor="start" x="175" y="-2922.85" font-family="Bitstream-Vera Sans" font-size="7.00">&#45; jartlam</text>
<text text-anchor="start" x="175" y="-2909.85" font-family="Bitstream-Vera Sans" font-size="7.00">&#45; jarxola</text>
<text text-anchor="start" x="175" y="-2896.85" font-family="Bitstream-Vera Sans" font-size="7.00">&#45; jarmete</text>
<text text-anchor="start" x="175" y="-2883.85" font-family="Bitstream-Vera Sans" font-size="7.00">&#45; comaltot</text>
<polygon fill="none" stroke="black" points="172,-2878.5 172,-3194.5 217,-3194.5 217,-2878.5 172,-2878.5"/>
</g>
<!-- REAN_00&#45;&gt;REAN_02 -->
<g id="edge2" class="edge">
<title>REAN_00&#45;&gt;REAN_02</title>
<path fill="none" stroke="black" d="M68.58,-1553.69C73.68,-1777.66 95.29,-2607.1 141.12,-2865.5 146.38,-2895.15 155.18,-2926.89 164.07,-2954.87"/>
<polygon fill="none" stroke="black" points="72.08,-1553.69 68.36,-1543.77 65.08,-1553.84 72.08,-1553.69"/>
<text text-anchor="middle" x="155.45" y="-2948.22" font-family="Bitstream-Vera Sans" font-size="7.00">+ ssn</text>
<text text-anchor="middle" x="59.7" y="-1544.61" font-family="Bitstream-Vera Sans" font-size="7.00">+ ssn</text>
</g>
<!-- REAN_03 -->
<g id="node4" class="node">
<title>REAN_03</title>
<text text-anchor="start" x="180.25" y="-2842.85" font-family="Bitstream-Vera Sans" font-size="7.00">REAN_03</text>
<polygon fill="none" stroke="black" points="162.5,-2836.5 162.5,-2838.5 226.5,-2838.5 226.5,-2836.5 162.5,-2836.5"/>
<text text-anchor="start" x="164.5" y="-2827.85" font-family="Bitstream-Vera Sans" font-size="7.00">&#45; ssn</text>
<text text-anchor="start" x="164.5" y="-2814.85" font-family="Bitstream-Vera Sans" font-size="7.00">&#45; comalmicc</text>
<text text-anchor="start" x="164.5" y="-2801.85" font-family="Bitstream-Vera Sans" font-size="7.00">&#45; comaltlam</text>
<text text-anchor="start" x="164.5" y="-2788.85" font-family="Bitstream-Vera Sans" font-size="7.00">&#45; comalxola</text>
<text text-anchor="start" x="164.5" y="-2775.85" font-family="Bitstream-Vera Sans" font-size="7.00">&#45; comalmete</text>
<text text-anchor="start" x="164.5" y="-2762.85" font-family="Bitstream-Vera Sans" font-size="7.00">&#45; basinbowltot</text>
<text text-anchor="start" x="164.5" y="-2749.85" font-family="Bitstream-Vera Sans" font-size="7.00">&#45; basinbowlmicc</text>
<text text-anchor="start" x="164.5" y="-2736.85" font-family="Bitstream-Vera Sans" font-size="7.00">&#45; basinbowltlam</text>
<text text-anchor="start" x="164.5" y="-2723.85" font-family="Bitstream-Vera Sans" font-size="7.00">&#45; basinbowlxola</text>
<text text-anchor="start" x="164.5" y="-2710.85" font-family="Bitstream-Vera Sans" font-size="7.00">&#45; basinbowlmete</text>
<text text-anchor="start" x="164.5" y="-2697.85" font-family="Bitstream-Vera Sans" font-size="7.00">&#45; cazuelacratertot</text>
<text text-anchor="start" x="164.5" y="-2684.85" font-family="Bitstream-Vera Sans" font-size="7.00">&#45; cazuelacratermicc</text>
<text text-anchor="start" x="164.5" y="-2671.85" font-family="Bitstream-Vera Sans" font-size="7.00">&#45; cazuelacratertlam</text>
<text text-anchor="start" x="164.5" y="-2658.85" font-family="Bitstream-Vera Sans" font-size="7.00">&#45; cazuelacraterxola</text>
<text text-anchor="start" x="164.5" y="-2645.85" font-family="Bitstream-Vera Sans" font-size="7.00">&#45; cazuelacratermete</text>
<text text-anchor="start" x="164.5" y="-2632.85" font-family="Bitstream-Vera Sans" font-size="7.00">&#45; smocratertot</text>
<text text-anchor="start" x="164.5" y="-2619.85" font-family="Bitstream-Vera Sans" font-size="7.00">&#45; smocraterxola</text>
<text text-anchor="start" x="164.5" y="-2606.85" font-family="Bitstream-Vera Sans" font-size="7.00">&#45; smocratermete</text>
<text text-anchor="start" x="164.5" y="-2593.85" font-family="Bitstream-Vera Sans" font-size="7.00">&#45; smoamphtot</text>
<text text-anchor="start" x="164.5" y="-2580.85" font-family="Bitstream-Vera Sans" font-size="7.00">&#45; smoamphxola</text>
<text text-anchor="start" x="164.5" y="-2567.85" font-family="Bitstream-Vera Sans" font-size="7.00">&#45; smoamphmete</text>
<text text-anchor="start" x="164.5" y="-2554.85" font-family="Bitstream-Vera Sans" font-size="7.00">&#45; smoscrbasintot</text>
<text text-anchor="start" x="164.5" y="-2541.85" font-family="Bitstream-Vera Sans" font-size="7.00">&#45; smoscrbasinxola</text>
<polygon fill="none" stroke="black" points="161.5,-2536.5 161.5,-2852.5 227.5,-2852.5 227.5,-2536.5 161.5,-2536.5"/>
</g>
<!-- REAN_00&#45;&gt;REAN_03 -->
<g id="edge3" class="edge">
<title>REAN_00&#45;&gt;REAN_03</title>
<path fill="none" stroke="black" d="M66.99,-1553.57C66.88,-1709.06 72.97,-2158.27 141.12,-2523.5 144.34,-2540.74 148.69,-2558.71 153.52,-2576.23"/>
<polygon fill="none" stroke="black" points="70.49,-1553.98 67.01,-1543.97 63.49,-1553.97 70.49,-1553.98"/>
<text text-anchor="middle" x="144.89" y="-2569.58" font-family="Bitstream-Vera Sans" font-size="7.00">+ ssn</text>
<text text-anchor="middle" x="75.64" y="-1535.81" font-family="Bitstream-Vera Sans" font-size="7.00">+ ssn</text>
</g>
<!-- REAN_04 -->
<g id="node5" class="node">
<title>REAN_04</title>
<text text-anchor="start" x="180.25" y="-2500.85" font-family="Bitstream-Vera Sans" font-size="7.00">REAN_04</text>
<polygon fill="none" stroke="black" points="164,-2494.5 164,-2496.5 225,-2496.5 225,-2494.5 164,-2494.5"/>
<text text-anchor="start" x="166" y="-2485.85" font-family="Bitstream-Vera Sans" font-size="7.00">&#45; ssn</text>
<text text-anchor="start" x="166" y="-2472.85" font-family="Bitstream-Vera Sans" font-size="7.00">&#45; smoscrbasinmete</text>
<text text-anchor="start" x="166" y="-2459.85" font-family="Bitstream-Vera Sans" font-size="7.00">&#45; redcratertot</text>
<text text-anchor="start" x="166" y="-2446.85" font-family="Bitstream-Vera Sans" font-size="7.00">&#45; redcraterxola</text>
<text text-anchor="start" x="166" y="-2433.85" font-family="Bitstream-Vera Sans" font-size="7.00">&#45; redcratermete</text>
<text text-anchor="start" x="166" y="-2420.85" font-family="Bitstream-Vera Sans" font-size="7.00">&#45; redvasetot</text>
<text text-anchor="start" x="166" y="-2407.85" font-family="Bitstream-Vera Sans" font-size="7.00">&#45; redvasetlam</text>
<text text-anchor="start" x="166" y="-2394.85" font-family="Bitstream-Vera Sans" font-size="7.00">&#45; redvasexola</text>
<text text-anchor="start" x="166" y="-2381.85" font-family="Bitstream-Vera Sans" font-size="7.00">&#45; redvasemete</text>
<text text-anchor="start" x="166" y="-2368.85" font-family="Bitstream-Vera Sans" font-size="7.00">&#45; redjartot</text>
<text text-anchor="start" x="166" y="-2355.85" font-family="Bitstream-Vera Sans" font-size="7.00">&#45; redjarxola</text>
<text text-anchor="start" x="166" y="-2342.85" font-family="Bitstream-Vera Sans" font-size="7.00">&#45; redjarmete</text>
<text text-anchor="start" x="166" y="-2329.85" font-family="Bitstream-Vera Sans" font-size="7.00">&#45; redbowltot</text>
<text text-anchor="start" x="166" y="-2316.85" font-family="Bitstream-Vera Sans" font-size="7.00">&#45; redbowlxola</text>
<text text-anchor="start" x="166" y="-2303.85" font-family="Bitstream-Vera Sans" font-size="7.00">&#45; redbowlmete</text>
<text text-anchor="start" x="166" y="-2290.85" font-family="Bitstream-Vera Sans" font-size="7.00">&#45; rnbowltot</text>
<text text-anchor="start" x="166" y="-2277.85" font-family="Bitstream-Vera Sans" font-size="7.00">&#45; rnbowltlam</text>
<text text-anchor="start" x="166" y="-2264.85" font-family="Bitstream-Vera Sans" font-size="7.00">&#45; rnbowlxola</text>
<text text-anchor="start" x="166" y="-2251.85" font-family="Bitstream-Vera Sans" font-size="7.00">&#45; rnbowlmete</text>
<text text-anchor="start" x="166" y="-2238.85" font-family="Bitstream-Vera Sans" font-size="7.00">&#45; rncratertot</text>
<text text-anchor="start" x="166" y="-2225.85" font-family="Bitstream-Vera Sans" font-size="7.00">&#45; rncraterxola</text>
<text text-anchor="start" x="166" y="-2212.85" font-family="Bitstream-Vera Sans" font-size="7.00">&#45; rncratermete</text>
<text text-anchor="start" x="166" y="-2199.85" font-family="Bitstream-Vera Sans" font-size="7.00">&#45; rnbasintot</text>
<polygon fill="none" stroke="black" points="163,-2194.5 163,-2510.5 226,-2510.5 226,-2194.5 163,-2194.5"/>
</g>
<!-- REAN_00&#45;&gt;REAN_04 -->
<g id="edge4" class="edge">
<title>REAN_00&#45;&gt;REAN_04</title>
<path fill="none" stroke="black" d="M69.81,-1553.56C75.71,-1671.06 93.92,-1951.36 141.12,-2181.5 144.9,-2199.9 149.82,-2219.16 155.12,-2237.83"/>
<polygon fill="none" stroke="black" points="73.33,-1553.69 69.34,-1543.88 66.33,-1554.04 73.33,-1553.69"/>
<text text-anchor="middle" x="146.5" y="-2231.18" font-family="Bitstream-Vera Sans" font-size="7.00">+ ssn</text>
<text text-anchor="middle" x="60.64" y="-1535.72" font-family="Bitstream-Vera Sans" font-size="7.00">+ ssn</text>
</g>
<!-- REAN_05 -->
<g id="node6" class="node">
<title>REAN_05</title>
<text text-anchor="start" x="180.25" y="-2158.85" font-family="Bitstream-Vera Sans" font-size="7.00">REAN_05</text>
<polygon fill="none" stroke="black" points="166.62,-2152.5 166.62,-2154.5 222.38,-2154.5 222.38,-2152.5 166.62,-2152.5"/>
<text text-anchor="start" x="168.62" y="-2143.85" font-family="Bitstream-Vera Sans" font-size="7.00">&#45; ssn</text>
<text text-anchor="start" x="168.62" y="-2130.85" font-family="Bitstream-Vera Sans" font-size="7.00">&#45; rnbasinxola</text>
<text text-anchor="start" x="168.62" y="-2117.85" font-family="Bitstream-Vera Sans" font-size="7.00">&#45; rnbasinmete</text>
<text text-anchor="start" x="168.62" y="-2104.85" font-family="Bitstream-Vera Sans" font-size="7.00">&#45; rnvasetot</text>
<text text-anchor="start" x="168.62" y="-2091.85" font-family="Bitstream-Vera Sans" font-size="7.00">&#45; rnvasetlam</text>
<text text-anchor="start" x="168.62" y="-2078.85" font-family="Bitstream-Vera Sans" font-size="7.00">&#45; rnvasexola</text>
<text text-anchor="start" x="168.62" y="-2065.85" font-family="Bitstream-Vera Sans" font-size="7.00">&#45; rnvasemete</text>
<text text-anchor="start" x="168.62" y="-2052.85" font-family="Bitstream-Vera Sans" font-size="7.00">&#45; rnridgedtot</text>
<text text-anchor="start" x="168.62" y="-2039.85" font-family="Bitstream-Vera Sans" font-size="7.00">&#45; rnridgedxola</text>
<text text-anchor="start" x="168.62" y="-2026.85" font-family="Bitstream-Vera Sans" font-size="7.00">&#45; rnridgedmete</text>
<text text-anchor="start" x="168.62" y="-2013.85" font-family="Bitstream-Vera Sans" font-size="7.00">&#45; rnjartot</text>
<text text-anchor="start" x="168.62" y="-2000.85" font-family="Bitstream-Vera Sans" font-size="7.00">&#45; rnjartlam</text>
<text text-anchor="start" x="168.62" y="-1987.85" font-family="Bitstream-Vera Sans" font-size="7.00">&#45; rnjarxola</text>
<text text-anchor="start" x="168.62" y="-1974.85" font-family="Bitstream-Vera Sans" font-size="7.00">&#45; rnjarmete</text>
<text text-anchor="start" x="168.62" y="-1961.85" font-family="Bitstream-Vera Sans" font-size="7.00">&#45; redtzac</text>
<text text-anchor="start" x="168.62" y="-1948.85" font-family="Bitstream-Vera Sans" font-size="7.00">&#45; polychrometzac</text>
<text text-anchor="start" x="168.62" y="-1935.85" font-family="Bitstream-Vera Sans" font-size="7.00">&#45; resisttzac</text>
<text text-anchor="start" x="168.62" y="-1922.85" font-family="Bitstream-Vera Sans" font-size="7.00">&#45; burner</text>
<text text-anchor="start" x="168.62" y="-1909.85" font-family="Bitstream-Vera Sans" font-size="7.00">&#45; censertot</text>
<text text-anchor="start" x="168.62" y="-1896.85" font-family="Bitstream-Vera Sans" font-size="7.00">&#45; censermicc</text>
<text text-anchor="start" x="168.62" y="-1883.85" font-family="Bitstream-Vera Sans" font-size="7.00">&#45; censertlam</text>
<text text-anchor="start" x="168.62" y="-1870.85" font-family="Bitstream-Vera Sans" font-size="7.00">&#45; censerxola</text>
<text text-anchor="start" x="168.62" y="-1857.85" font-family="Bitstream-Vera Sans" font-size="7.00">&#45; censermete</text>
<polygon fill="none" stroke="black" points="165.62,-1852.5 165.62,-2168.5 223.38,-2168.5 223.38,-1852.5 165.62,-1852.5"/>
</g>
<!-- REAN_00&#45;&gt;REAN_05 -->
<g id="edge5" class="edge">
<title>REAN_00&#45;&gt;REAN_05</title>
<path fill="none" stroke="black" d="M77.96,-1553.62C91.14,-1621.66 115.11,-1739.62 141.12,-1839.5 146.13,-1858.73 151.91,-1879.03 157.76,-1898.67"/>
<polygon fill="none" stroke="black" points="81.4,-1552.97 76.07,-1543.81 74.52,-1554.3 81.4,-1552.97"/>
<text text-anchor="middle" x="149.14" y="-1892.02" font-family="Bitstream-Vera Sans" font-size="7.00">+ ssn</text>
<text text-anchor="middle" x="84.41" y="-1544.68" font-family="Bitstream-Vera Sans" font-size="7.00">+ ssn</text>
</g>
<!-- REAN_06 -->
<g id="node7" class="node">
<title>REAN_06</title>
<text text-anchor="start" x="180.25" y="-1816.85" font-family="Bitstream-Vera Sans" font-size="7.00">REAN_06</text>
<polygon fill="none" stroke="black" points="170,-1810.5 170,-1812.5 219,-1812.5 219,-1810.5 170,-1810.5"/>
<text text-anchor="start" x="172" y="-1801.85" font-family="Bitstream-Vera Sans" font-size="7.00">&#45; ssn</text>
<text text-anchor="start" x="172" y="-1788.85" font-family="Bitstream-Vera Sans" font-size="7.00">&#45; burnercenser</text>
<text text-anchor="start" x="172" y="-1775.85" font-family="Bitstream-Vera Sans" font-size="7.00">&#45; censeradorno</text>
<text text-anchor="start" x="172" y="-1762.85" font-family="Bitstream-Vera Sans" font-size="7.00">&#45; miniature</text>
<text text-anchor="start" x="172" y="-1749.85" font-family="Bitstream-Vera Sans" font-size="7.00">&#45; handledcover</text>
<text text-anchor="start" x="172" y="-1736.85" font-family="Bitstream-Vera Sans" font-size="7.00">&#45; polblacktot</text>
<text text-anchor="start" x="172" y="-1723.85" font-family="Bitstream-Vera Sans" font-size="7.00">&#45; polblackmicc</text>
<text text-anchor="start" x="172" y="-1710.85" font-family="Bitstream-Vera Sans" font-size="7.00">&#45; polblacktlam</text>
<text text-anchor="start" x="172" y="-1697.85" font-family="Bitstream-Vera Sans" font-size="7.00">&#45; polblackxola</text>
<text text-anchor="start" x="172" y="-1684.85" font-family="Bitstream-Vera Sans" font-size="7.00">&#45; polblackmete</text>
<text text-anchor="start" x="172" y="-1671.85" font-family="Bitstream-Vera Sans" font-size="7.00">&#45; pattpoltot</text>
<text text-anchor="start" x="172" y="-1658.85" font-family="Bitstream-Vera Sans" font-size="7.00">&#45; pattpolmicc</text>
<text text-anchor="start" x="172" y="-1645.85" font-family="Bitstream-Vera Sans" font-size="7.00">&#45; pattpoltlam</text>
<text text-anchor="start" x="172" y="-1632.85" font-family="Bitstream-Vera Sans" font-size="7.00">&#45; pattpolxola</text>
<text text-anchor="start" x="172" y="-1619.85" font-family="Bitstream-Vera Sans" font-size="7.00">&#45; pattpolmete</text>
<text text-anchor="start" x="172" y="-1606.85" font-family="Bitstream-Vera Sans" font-size="7.00">&#45; lustrous</text>
<text text-anchor="start" x="172" y="-1593.85" font-family="Bitstream-Vera Sans" font-size="7.00">&#45; copatot</text>
<text text-anchor="start" x="172" y="-1580.85" font-family="Bitstream-Vera Sans" font-size="7.00">&#45; copaxola</text>
<text text-anchor="start" x="172" y="-1567.85" font-family="Bitstream-Vera Sans" font-size="7.00">&#45; copamete</text>
<text text-anchor="start" x="172" y="-1554.85" font-family="Bitstream-Vera Sans" font-size="7.00">&#45; denseware</text>
<text text-anchor="start" x="172" y="-1541.85" font-family="Bitstream-Vera Sans" font-size="7.00">&#45; lid</text>
<text text-anchor="start" x="172" y="-1528.85" font-family="Bitstream-Vera Sans" font-size="7.00">&#45; planorelief</text>
<text text-anchor="start" x="172" y="-1515.85" font-family="Bitstream-Vera Sans" font-size="7.00">&#45; incisedregtot</text>
<polygon fill="none" stroke="black" points="169,-1510.5 169,-1826.5 220,-1826.5 220,-1510.5 169,-1510.5"/>
</g>
<!-- REAN_00&#45;&gt;REAN_06 -->
<g id="edge6" class="edge">
<title>REAN_00&#45;&gt;REAN_06</title>
<path fill="none" stroke="black" d="M107.25,-1551.57C124.58,-1575.06 144.62,-1602.23 161.02,-1624.46"/>
<polygon fill="none" stroke="black" points="110.16,-1549.62 101.41,-1543.65 104.53,-1553.77 110.16,-1549.62"/>
<text text-anchor="middle" x="152.39" y="-1617.81" font-family="Bitstream-Vera Sans" font-size="7.00">+ ssn</text>
<text text-anchor="middle" x="109.14" y="-1544.78" font-family="Bitstream-Vera Sans" font-size="7.00">+ ssn</text>
</g>
<!-- REAN_07 -->
<g id="node8" class="node">
<title>REAN_07</title>
<text text-anchor="start" x="180.25" y="-1474.85" font-family="Bitstream-Vera Sans" font-size="7.00">REAN_07</text>
<polygon fill="none" stroke="black" points="161.75,-1468.5 161.75,-1470.5 227.25,-1470.5 227.25,-1468.5 161.75,-1468.5"/>
<text text-anchor="start" x="163.75" y="-1459.85" font-family="Bitstream-Vera Sans" font-size="7.00">&#45; ssn</text>
<text text-anchor="start" x="163.75" y="-1446.85" font-family="Bitstream-Vera Sans" font-size="7.00">&#45; incisedregmicc</text>
<text text-anchor="start" x="163.75" y="-1433.85" font-family="Bitstream-Vera Sans" font-size="7.00">&#45; incisedregtlam</text>
<text text-anchor="start" x="163.75" y="-1420.85" font-family="Bitstream-Vera Sans" font-size="7.00">&#45; incisedregxola</text>
<text text-anchor="start" x="163.75" y="-1407.85" font-family="Bitstream-Vera Sans" font-size="7.00">&#45; incisedregmete</text>
<text text-anchor="start" x="163.75" y="-1394.85" font-family="Bitstream-Vera Sans" font-size="7.00">&#45; incisedcrosstot</text>
<text text-anchor="start" x="163.75" y="-1381.85" font-family="Bitstream-Vera Sans" font-size="7.00">&#45; incisedcrossmicc</text>
<text text-anchor="start" x="163.75" y="-1368.85" font-family="Bitstream-Vera Sans" font-size="7.00">&#45; incisedcrosstlam</text>
<text text-anchor="start" x="163.75" y="-1355.85" font-family="Bitstream-Vera Sans" font-size="7.00">&#45; incisedcrossxola</text>
<text text-anchor="start" x="163.75" y="-1342.85" font-family="Bitstream-Vera Sans" font-size="7.00">&#45; incisedscratchtot</text>
<text text-anchor="start" x="163.75" y="-1329.85" font-family="Bitstream-Vera Sans" font-size="7.00">&#45; incisedscratchxola</text>
<text text-anchor="start" x="163.75" y="-1316.85" font-family="Bitstream-Vera Sans" font-size="7.00">&#45; incisedscratchmete</text>
<text text-anchor="start" x="163.75" y="-1303.85" font-family="Bitstream-Vera Sans" font-size="7.00">&#45; incisedgroovetot</text>
<text text-anchor="start" x="163.75" y="-1290.85" font-family="Bitstream-Vera Sans" font-size="7.00">&#45; incisedgroovetlam</text>
<text text-anchor="start" x="163.75" y="-1277.85" font-family="Bitstream-Vera Sans" font-size="7.00">&#45; incisedgroovexola</text>
<text text-anchor="start" x="163.75" y="-1264.85" font-family="Bitstream-Vera Sans" font-size="7.00">&#45; incisedgroovemete</text>
<text text-anchor="start" x="163.75" y="-1251.85" font-family="Bitstream-Vera Sans" font-size="7.00">&#45; incisedgougetot</text>
<text text-anchor="start" x="163.75" y="-1238.85" font-family="Bitstream-Vera Sans" font-size="7.00">&#45; incisedgougemicc</text>
<text text-anchor="start" x="163.75" y="-1225.85" font-family="Bitstream-Vera Sans" font-size="7.00">&#45; incisedgougetlam</text>
<text text-anchor="start" x="163.75" y="-1212.85" font-family="Bitstream-Vera Sans" font-size="7.00">&#45; incisedgougexola</text>
<text text-anchor="start" x="163.75" y="-1199.85" font-family="Bitstream-Vera Sans" font-size="7.00">&#45; incisedgougemete</text>
<text text-anchor="start" x="163.75" y="-1186.85" font-family="Bitstream-Vera Sans" font-size="7.00">&#45; supnubbintot</text>
<text text-anchor="start" x="163.75" y="-1173.85" font-family="Bitstream-Vera Sans" font-size="7.00">&#45; supnubbinmicc</text>
<polygon fill="none" stroke="black" points="160.75,-1168.5 160.75,-1484.5 228.25,-1484.5 228.25,-1168.5 160.75,-1168.5"/>
</g>
<!-- REAN_00&#45;&gt;REAN_07 -->
<g id="edge7" class="edge">
<title>REAN_00&#45;&gt;REAN_07</title>
<path fill="none" stroke="black" d="M107.27,-1443.41C121.84,-1423.66 138.31,-1401.32 152.93,-1381.5"/>
<polygon fill="none" stroke="black" points="104.53,-1441.23 101.41,-1451.35 110.16,-1445.38 104.53,-1441.23"/>
<text text-anchor="middle" x="144.31" y="-1374.85" font-family="Bitstream-Vera Sans" font-size="7.00">+ ssn</text>
<text text-anchor="middle" x="91.89" y="-1445.92" font-family="Bitstream-Vera Sans" font-size="7.00">+ ssn</text>
</g>
<!-- REAN_08 -->
<g id="node9" class="node">
<title>REAN_08</title>
<text text-anchor="start" x="180.25" y="-1132.85" font-family="Bitstream-Vera Sans" font-size="7.00">REAN_08</text>
<polygon fill="none" stroke="black" points="165.88,-1126.5 165.88,-1128.5 223.12,-1128.5 223.12,-1126.5 165.88,-1126.5"/>
<text text-anchor="start" x="167.88" y="-1117.85" font-family="Bitstream-Vera Sans" font-size="7.00">&#45; ssn</text>
<text text-anchor="start" x="167.88" y="-1104.85" font-family="Bitstream-Vera Sans" font-size="7.00">&#45; supnubbintlam</text>
<text text-anchor="start" x="167.88" y="-1091.85" font-family="Bitstream-Vera Sans" font-size="7.00">&#45; supnubbinxola</text>
<text text-anchor="start" x="167.88" y="-1078.85" font-family="Bitstream-Vera Sans" font-size="7.00">&#45; supnubbinmete</text>
<text text-anchor="start" x="167.88" y="-1065.85" font-family="Bitstream-Vera Sans" font-size="7.00">&#45; suproundtot</text>
<text text-anchor="start" x="167.88" y="-1052.85" font-family="Bitstream-Vera Sans" font-size="7.00">&#45; suproundtlam</text>
<text text-anchor="start" x="167.88" y="-1039.85" font-family="Bitstream-Vera Sans" font-size="7.00">&#45; suproundxola</text>
<text text-anchor="start" x="167.88" y="-1026.85" font-family="Bitstream-Vera Sans" font-size="7.00">&#45; supslabtot</text>
<text text-anchor="start" x="167.88" y="-1013.85" font-family="Bitstream-Vera Sans" font-size="7.00">&#45; supslabtlam</text>
<text text-anchor="start" x="167.88" y="-1000.85" font-family="Bitstream-Vera Sans" font-size="7.00">&#45; supslabxola</text>
<text text-anchor="start" x="167.88" y="-987.85" font-family="Bitstream-Vera Sans" font-size="7.00">&#45; supring</text>
<text text-anchor="start" x="167.88" y="-974.85" font-family="Bitstream-Vera Sans" font-size="7.00">&#45; polvasetot</text>
<text text-anchor="start" x="167.88" y="-961.85" font-family="Bitstream-Vera Sans" font-size="7.00">&#45; polvasemicc</text>
<text text-anchor="start" x="167.88" y="-948.85" font-family="Bitstream-Vera Sans" font-size="7.00">&#45; polvasetlam</text>
<text text-anchor="start" x="167.88" y="-935.85" font-family="Bitstream-Vera Sans" font-size="7.00">&#45; polvasexola</text>
<text text-anchor="start" x="167.88" y="-922.85" font-family="Bitstream-Vera Sans" font-size="7.00">&#45; polvasemete</text>
<text text-anchor="start" x="167.88" y="-909.85" font-family="Bitstream-Vera Sans" font-size="7.00">&#45; ocbowltot</text>
<text text-anchor="start" x="167.88" y="-896.85" font-family="Bitstream-Vera Sans" font-size="7.00">&#45; ocbowlmicc</text>
<text text-anchor="start" x="167.88" y="-883.85" font-family="Bitstream-Vera Sans" font-size="7.00">&#45; ocbowltlam</text>
<text text-anchor="start" x="167.88" y="-870.85" font-family="Bitstream-Vera Sans" font-size="7.00">&#45; ocbowlxola</text>
<text text-anchor="start" x="167.88" y="-857.85" font-family="Bitstream-Vera Sans" font-size="7.00">&#45; ocbowlmete</text>
<text text-anchor="start" x="167.88" y="-844.85" font-family="Bitstream-Vera Sans" font-size="7.00">&#45; formadornotot</text>
<text text-anchor="start" x="167.88" y="-831.85" font-family="Bitstream-Vera Sans" font-size="7.00">&#45; formadornotlam</text>
<polygon fill="none" stroke="black" points="164.88,-826.5 164.88,-1142.5 224.12,-1142.5 224.12,-826.5 164.88,-826.5"/>
</g>
<!-- REAN_00&#45;&gt;REAN_08 -->
<g id="edge8" class="edge">
<title>REAN_00&#45;&gt;REAN_08</title>
<path fill="none" stroke="black" d="M77.96,-1441.38C91.14,-1373.34 115.11,-1255.38 141.12,-1155.5 145.9,-1137.17 151.37,-1117.87 156.94,-1099.1"/>
<polygon fill="none" stroke="black" points="74.52,-1440.7 76.07,-1451.19 81.4,-1442.03 74.52,-1440.7"/>
<text text-anchor="middle" x="148.31" y="-1092.45" font-family="Bitstream-Vera Sans" font-size="7.00">+ ssn</text>
<text text-anchor="middle" x="67.16" y="-1446.02" font-family="Bitstream-Vera Sans" font-size="7.00">+ ssn</text>
</g>
<!-- REAN_09 -->
<g id="node10" class="node">
<title>REAN_09</title>
<text text-anchor="start" x="180.25" y="-790.85" font-family="Bitstream-Vera Sans" font-size="7.00">REAN_09</text>
<polygon fill="none" stroke="black" points="166.25,-784.5 166.25,-786.5 222.75,-786.5 222.75,-784.5 166.25,-784.5"/>
<text text-anchor="start" x="168.25" y="-775.85" font-family="Bitstream-Vera Sans" font-size="7.00">&#45; ssn</text>
<text text-anchor="start" x="168.25" y="-762.85" font-family="Bitstream-Vera Sans" font-size="7.00">&#45; formadornoxola</text>
<text text-anchor="start" x="168.25" y="-749.85" font-family="Bitstream-Vera Sans" font-size="7.00">&#45; polbowltot</text>
<text text-anchor="start" x="168.25" y="-736.85" font-family="Bitstream-Vera Sans" font-size="7.00">&#45; polbowltzac</text>
<text text-anchor="start" x="168.25" y="-723.85" font-family="Bitstream-Vera Sans" font-size="7.00">&#45; polbowlmicc</text>
<text text-anchor="start" x="168.25" y="-710.85" font-family="Bitstream-Vera Sans" font-size="7.00">&#45; polbowltlam</text>
<text text-anchor="start" x="168.25" y="-697.85" font-family="Bitstream-Vera Sans" font-size="7.00">&#45; polbowlxola</text>
<text text-anchor="start" x="168.25" y="-684.85" font-family="Bitstream-Vera Sans" font-size="7.00">&#45; polbowlmete</text>
<text text-anchor="start" x="168.25" y="-671.85" font-family="Bitstream-Vera Sans" font-size="7.00">&#45; florerotot</text>
<text text-anchor="start" x="168.25" y="-658.85" font-family="Bitstream-Vera Sans" font-size="7.00">&#45; floreromicc</text>
<text text-anchor="start" x="168.25" y="-645.85" font-family="Bitstream-Vera Sans" font-size="7.00">&#45; florerotlam</text>
<text text-anchor="start" x="168.25" y="-632.85" font-family="Bitstream-Vera Sans" font-size="7.00">&#45; floreroxola</text>
<text text-anchor="start" x="168.25" y="-619.85" font-family="Bitstream-Vera Sans" font-size="7.00">&#45; tlalocvessel</text>
<polygon fill="none" stroke="black" points="165.25,-614.5 165.25,-800.5 223.75,-800.5 223.75,-614.5 165.25,-614.5"/>
</g>
<!-- REAN_00&#45;&gt;REAN_09 -->
<g id="edge9" class="edge">
<title>REAN_00&#45;&gt;REAN_09</title>
<path fill="none" stroke="black" d="M66.84,-1441.58C67.13,-1323.22 75.32,-1039.63 141.12,-813.5 145.2,-799.51 151.04,-785.12 157.36,-771.64"/>
<polygon fill="none" stroke="black" points="63.35,-1441.34 66.84,-1451.34 70.35,-1441.34 63.35,-1441.34"/>
<text text-anchor="middle" x="148.73" y="-764.99" font-family="Bitstream-Vera Sans" font-size="7.00">+ ssn</text>
<text text-anchor="middle" x="58.22" y="-1446.2" font-family="Bitstream-Vera Sans" font-size="7.00">+ ssn</text>
</g>
<!-- REAN_10 -->
<g id="node11" class="node">
<title>REAN_10</title>
<text text-anchor="start" x="180.25" y="-578.85" font-family="Bitstream-Vera Sans" font-size="7.00">REAN_10</text>
<polygon fill="none" stroke="black" points="178.25,-572.5 178.25,-574.5 210.75,-574.5 210.75,-572.5 178.25,-572.5"/>
<text text-anchor="start" x="180.25" y="-563.85" font-family="Bitstream-Vera Sans" font-size="7.00">&#45; ssn</text>
<text text-anchor="start" x="180.25" y="-550.85" font-family="Bitstream-Vera Sans" font-size="7.00">&#45; d420</text>
<text text-anchor="start" x="180.25" y="-537.85" font-family="Bitstream-Vera Sans" font-size="7.00">&#45; d970</text>
<text text-anchor="start" x="180.25" y="-524.85" font-family="Bitstream-Vera Sans" font-size="7.00">&#45; d976</text>
<text text-anchor="start" x="180.25" y="-511.85" font-family="Bitstream-Vera Sans" font-size="7.00">&#45; d1100</text>
<polygon fill="none" stroke="black" points="177.25,-506.5 177.25,-588.5 211.75,-588.5 211.75,-506.5 177.25,-506.5"/>
</g>
<!-- REAN_00&#45;&gt;REAN_10 -->
<g id="edge10" class="edge">
<title>REAN_00&#45;&gt;REAN_10</title>
<path fill="none" stroke="black" d="M67.1,-1441.45C67.02,-1269.56 72.62,-752.41 141.12,-601.5 147.06,-588.42 157.57,-576.61 167.62,-567.39"/>
<polygon fill="none" stroke="black" points="63.6,-1441.23 67.11,-1451.23 70.6,-1441.22 63.6,-1441.23"/>
<text text-anchor="middle" x="158.99" y="-560.74" font-family="Bitstream-Vera Sans" font-size="7.00">+ ssn</text>
<text text-anchor="middle" x="75.74" y="-1446.09" font-family="Bitstream-Vera Sans" font-size="7.00">+ ssn</text>
</g>
<!-- REAN_aux_obs -->
<g id="node12" class="node">
<title>REAN_aux_obs</title>
<text text-anchor="start" x="171.25" y="-470.35" font-family="Bitstream-Vera Sans" font-size="7.00">REAN_aux_obs</text>
<polygon fill="none" stroke="black" points="161.38,-464 161.38,-466 227.62,-466 227.62,-464 161.38,-464"/>
<text text-anchor="start" x="163.38" y="-455.35" font-family="Bitstream-Vera Sans" font-size="7.00">&#45; ssn</text>
<text text-anchor="start" x="163.38" y="-442.35" font-family="Bitstream-Vera Sans" font-size="7.00">&#45; to_total</text>
<text text-anchor="start" x="163.38" y="-429.35" font-family="Bitstream-Vera Sans" font-size="7.00">&#45; to_adorno</text>
<text text-anchor="start" x="163.38" y="-416.35" font-family="Bitstream-Vera Sans" font-size="7.00">&#45; to_nubbin</text>
<text text-anchor="start" x="163.38" y="-403.35" font-family="Bitstream-Vera Sans" font-size="7.00">&#45; to_slab</text>
<text text-anchor="start" x="163.38" y="-390.35" font-family="Bitstream-Vera Sans" font-size="7.00">&#45; to_lid</text>
<text text-anchor="start" x="163.38" y="-377.35" font-family="Bitstream-Vera Sans" font-size="7.00">&#45; xol_tto</text>
<text text-anchor="start" x="163.38" y="-364.35" font-family="Bitstream-Vera Sans" font-size="7.00">&#45; met_tto</text>
<text text-anchor="start" x="163.38" y="-351.35" font-family="Bitstream-Vera Sans" font-size="7.00">&#45; xol_cto</text>
<text text-anchor="start" x="163.38" y="-338.35" font-family="Bitstream-Vera Sans" font-size="7.00">&#45; met_cto</text>
<text text-anchor="start" x="163.38" y="-325.35" font-family="Bitstream-Vera Sans" font-size="7.00">&#45; tlajinga</text>
<text text-anchor="start" x="163.38" y="-312.35" font-family="Bitstream-Vera Sans" font-size="7.00">&#45; comment_aux_obs</text>
<polygon fill="none" stroke="black" points="160.38,-307 160.38,-480 228.62,-480 228.62,-307 160.38,-307"/>
</g>
<!-- REAN_00&#45;&gt;REAN_aux_obs -->
<g id="edge11" class="edge">
<title>REAN_00&#45;&gt;REAN_aux_obs</title>
<path fill="none" stroke="black" d="M68.5,-1441.49C72.65,-1257.61 89.67,-673.88 141.12,-493.5 144,-483.42 147.96,-473.18 152.43,-463.3"/>
<polygon fill="none" stroke="black" points="65,-1441.17 68.28,-1451.25 72,-1441.33 65,-1441.17"/>
<text text-anchor="middle" x="143.81" y="-456.65" font-family="Bitstream-Vera Sans" font-size="7.00">+ ssn</text>
<text text-anchor="middle" x="59.62" y="-1455.11" font-family="Bitstream-Vera Sans" font-size="7.00">+ ssn</text>
</g>
<!-- REAN_fc_adds -->
<g id="node13" class="node">
<title>REAN_fc_adds</title>
<text text-anchor="start" x="172.38" y="-271.35" font-family="Bitstream-Vera Sans" font-size="7.00">REAN_fc_adds</text>
<polygon fill="none" stroke="black" points="150.12,-265 150.12,-267 238.88,-267 238.88,-265 150.12,-265"/>
<text text-anchor="start" x="152.12" y="-256.35" font-family="Bitstream-Vera Sans" font-size="7.00">&#45; ssn</text>
<text text-anchor="start" x="152.12" y="-243.35" font-family="Bitstream-Vera Sans" font-size="7.00">&#45; reanspres</text>
<text text-anchor="start" x="152.12" y="-230.35" font-family="Bitstream-Vera Sans" font-size="7.00">&#45; fcpres</text>
<text text-anchor="start" x="152.12" y="-217.35" font-family="Bitstream-Vera Sans" font-size="7.00">&#45; coded</text>
<text text-anchor="start" x="152.12" y="-204.35" font-family="Bitstream-Vera Sans" font-size="7.00">&#45; prevadd</text>
<text text-anchor="start" x="152.12" y="-191.35" font-family="Bitstream-Vera Sans" font-size="7.00">&#45; futureadd</text>
<text text-anchor="start" x="152.12" y="-178.35" font-family="Bitstream-Vera Sans" font-size="7.00">&#45; mrh_misplaced_collections</text>
<text text-anchor="start" x="152.12" y="-165.35" font-family="Bitstream-Vera Sans" font-size="7.00">&#45; newadd</text>
<text text-anchor="start" x="152.12" y="-152.35" font-family="Bitstream-Vera Sans" font-size="7.00">&#45; newaddnt</text>
<text text-anchor="start" x="152.12" y="-139.35" font-family="Bitstream-Vera Sans" font-size="7.00">&#45; comment_fc_adds</text>
<text text-anchor="start" x="152.12" y="-126.35" font-family="Bitstream-Vera Sans" font-size="7.00">&#45; tempto_flag</text>
<text text-anchor="start" x="152.12" y="-113.35" font-family="Bitstream-Vera Sans" font-size="7.00">&#45; tempto_shift</text>
<text text-anchor="start" x="152.12" y="-100.35" font-family="Bitstream-Vera Sans" font-size="7.00">&#45; tempto_in</text>
<text text-anchor="start" x="152.12" y="-87.35" font-family="Bitstream-Vera Sans" font-size="7.00">&#45; tempto_out</text>
<text text-anchor="start" x="152.12" y="-74.35" font-family="Bitstream-Vera Sans" font-size="7.00">&#45; reanspres_unk</text>
<text text-anchor="start" x="152.12" y="-61.35" font-family="Bitstream-Vera Sans" font-size="7.00">&#45; fcpres_unk</text>
<text text-anchor="start" x="152.12" y="-48.35" font-family="Bitstream-Vera Sans" font-size="7.00">&#45; coded_unk</text>
<text text-anchor="start" x="152.12" y="-35.35" font-family="Bitstream-Vera Sans" font-size="7.00">&#45; reanspres_abs</text>
<text text-anchor="start" x="152.12" y="-22.35" font-family="Bitstream-Vera Sans" font-size="7.00">&#45; fcpres_abs</text>
<text text-anchor="start" x="152.12" y="-9.35" font-family="Bitstream-Vera Sans" font-size="7.00">&#45; coded_abs</text>
<polygon fill="none" stroke="black" points="149.12,-4 149.12,-281 239.88,-281 239.88,-4 149.12,-4"/>
</g>
<!-- REAN_00&#45;&gt;REAN_fc_adds -->
<g id="edge12" class="edge">
<title>REAN_00&#45;&gt;REAN_fc_adds</title>
<path fill="none" stroke="black" d="M68.8,-1441.38C74.37,-1235 96.54,-518.46 141.12,-294.5 141.75,-291.35 142.43,-288.18 143.15,-284.99"/>
<polygon fill="none" stroke="black" points="65.31,-1441.22 68.54,-1451.31 72.3,-1441.4 65.31,-1441.22"/>
<text text-anchor="middle" x="134.52" y="-287.34" font-family="Bitstream-Vera Sans" font-size="7.00">+ ssn</text>
<text text-anchor="middle" x="77.12" y="-1455.17" font-family="Bitstream-Vera Sans" font-size="7.00">+ ssn</text>
</g>
</g>
</svg>
