<?xml version="1.0" encoding="UTF-8" standalone="no"?>
<!DOCTYPE svg PUBLIC "-//W3C//DTD SVG 1.1//EN"
 "http://www.w3.org/Graphics/SVG/1.1/DTD/svg11.dtd">
<!-- Generated by graphviz version 12.2.1 (0)
 -->
<!-- Title: G Pages: 1 -->
<svg width="230pt" height="575pt"
 viewBox="0.00 0.00 229.50 574.50" xmlns="http://www.w3.org/2000/svg" xmlns:xlink="http://www.w3.org/1999/xlink">
<g id="graph0" class="graph" transform="scale(1 1) rotate(0) translate(4 570.5)">
<title>G</title>
<polygon fill="white" stroke="none" points="-4,4 -4,-570.5 225.5,-570.5 225.5,4 -4,4"/>
<text text-anchor="middle" x="110.75" y="-543.5" font-family="Times New Roman,serif" font-size="20.00">Full ERD for TMP_DF10</text>
<!-- codeTable -->
<g id="node1" class="node">
<title>codeTable</title>
<text text-anchor="start" x="46.88" y="-522.35" font-family="Bitstream-Vera Sans" font-size="7.00">codeTable</text>
<polygon fill="none" stroke="black" points="44.88,-516 44.88,-518 78.88,-518 78.88,-516 44.88,-516"/>
<text text-anchor="start" x="46.88" y="-507.35" font-family="Bitstream-Vera Sans" font-size="7.00">&#45; ID</text>
<text text-anchor="start" x="46.88" y="-494.35" font-family="Bitstream-Vera Sans" font-size="7.00">&#45; SSN</text>
<text text-anchor="start" x="46.88" y="-481.35" font-family="Bitstream-Vera Sans" font-size="7.00">&#45; Code</text>
<text text-anchor="start" x="46.88" y="-468.35" font-family="Bitstream-Vera Sans" font-size="7.00">&#45; Variable</text>
<text text-anchor="start" x="46.88" y="-455.35" font-family="Bitstream-Vera Sans" font-size="7.00">&#45; Where</text>
<polygon fill="none" stroke="black" points="43.88,-450 43.88,-532 79.88,-532 79.88,-450 43.88,-450"/>
</g>
<!-- codeCodes -->
<g id="node2" class="node">
<title>codeCodes</title>
<text text-anchor="start" x="157" y="-502.85" font-family="Bitstream-Vera Sans" font-size="7.00">codeCodes</text>
<polygon fill="none" stroke="black" points="152.75,-496.5 152.75,-498.5 194.25,-498.5 194.25,-496.5 152.75,-496.5"/>
<text text-anchor="start" x="154.75" y="-487.85" font-family="Bitstream-Vera Sans" font-size="7.00">&#45; Code</text>
<text text-anchor="start" x="154.75" y="-474.85" font-family="Bitstream-Vera Sans" font-size="7.00">&#45; Description</text>
<polygon fill="none" stroke="black" points="151.75,-469.5 151.75,-512.5 195.25,-512.5 195.25,-469.5 151.75,-469.5"/>
</g>
<!-- codeTable&#45;&gt;codeCodes -->
<g id="edge1" class="edge">
<title>codeTable&#45;&gt;codeCodes</title>
<path fill="none" stroke="black" d="M143.61,-491C143.68,-491 143.75,-491 143.81,-491"/>
<polygon fill="black" stroke="black" points="99.19,-491 89.19,-486.5 93.85,-491 89.52,-491 89.52,-491 89.52,-491 93.85,-491 89.19,-495.5 99.19,-491"/>
<ellipse fill="none" stroke="black" cx="139.51" cy="-491" rx="4" ry="4"/>
<text text-anchor="middle" x="132.39" y="-484.35" font-family="Bitstream-Vera Sans" font-size="7.00">+ Code</text>
<text text-anchor="middle" x="100.48" y="-484.35" font-family="Bitstream-Vera Sans" font-size="7.00">+ Code</text>
</g>
<!-- provTable -->
<g id="node3" class="node">
<title>provTable</title>
<text text-anchor="start" x="158.88" y="-318.85" font-family="Bitstream-Vera Sans" font-size="7.00">provTable</text>
<polygon fill="none" stroke="black" points="156.5,-312.5 156.5,-314.5 190.5,-314.5 190.5,-312.5 156.5,-312.5"/>
<text text-anchor="start" x="158.5" y="-303.85" font-family="Bitstream-Vera Sans" font-size="7.00">&#45; SSN</text>
<text text-anchor="start" x="158.5" y="-290.85" font-family="Bitstream-Vera Sans" font-size="7.00">&#45; Site</text>
<text text-anchor="start" x="158.5" y="-277.85" font-family="Bitstream-Vera Sans" font-size="7.00">&#45; Subsite</text>
<text text-anchor="start" x="158.5" y="-264.85" font-family="Bitstream-Vera Sans" font-size="7.00">&#45; Unit</text>
<text text-anchor="start" x="158.5" y="-251.85" font-family="Bitstream-Vera Sans" font-size="7.00">&#45; Northing</text>
<text text-anchor="start" x="158.5" y="-238.85" font-family="Bitstream-Vera Sans" font-size="7.00">&#45; Easting</text>
<polygon fill="none" stroke="black" points="155.5,-233.5 155.5,-328.5 191.5,-328.5 191.5,-233.5 155.5,-233.5"/>
</g>
<!-- codeTable&#45;&gt;provTable -->
<g id="edge2" class="edge">
<title>codeTable&#45;&gt;provTable</title>
<path fill="none" stroke="black" d="M95.82,-452.99C99.69,-447.78 103.41,-442.37 106.62,-437 124.8,-406.7 140.43,-370.46 151.9,-340.54"/>
<polygon fill="black" stroke="black" points="95.08,-453.95 85.4,-459.09 91.82,-458.16 89.16,-461.59 89.16,-461.59 89.16,-461.59 91.82,-458.16 92.52,-464.61 95.08,-453.95"/>
<ellipse fill="none" stroke="black" cx="153.43" cy="-336.49" rx="4" ry="4"/>
<text text-anchor="middle" x="145.27" y="-334.63" font-family="Bitstream-Vera Sans" font-size="7.00">+ SSN</text>
<text text-anchor="middle" x="98.5" y="-455.46" font-family="Bitstream-Vera Sans" font-size="7.00">+ SSN</text>
</g>
<!-- archToSSN -->
<g id="node4" class="node">
<title>archToSSN</title>
<text text-anchor="start" x="45.75" y="-305.85" font-family="Bitstream-Vera Sans" font-size="7.00">archToSSN</text>
<polygon fill="none" stroke="black" points="26.12,-299.5 26.12,-301.5 97.62,-301.5 97.62,-299.5 26.12,-299.5"/>
<text text-anchor="start" x="28.12" y="-290.85" font-family="Bitstream-Vera Sans" font-size="7.00">&#45; ID</text>
<text text-anchor="start" x="28.12" y="-277.85" font-family="Bitstream-Vera Sans" font-size="7.00">&#45; ArchPolyID</text>
<text text-anchor="start" x="28.12" y="-264.85" font-family="Bitstream-Vera Sans" font-size="7.00">&#45; SSN</text>
<text text-anchor="start" x="28.12" y="-251.85" font-family="Bitstream-Vera Sans" font-size="7.00">&#45; Area_SSN_Coverage</text>
<polygon fill="none" stroke="black" points="25.12,-246.5 25.12,-315.5 98.62,-315.5 98.62,-246.5 25.12,-246.5"/>
</g>
<!-- archToSSN&#45;&gt;provTable -->
<g id="edge3" class="edge">
<title>archToSSN&#45;&gt;provTable</title>
<path fill="none" stroke="black" d="M146.4,-281C146.45,-281 146.5,-281 146.54,-281"/>
<polygon fill="black" stroke="black" points="116.85,-281 106.85,-276.5 111.52,-281 107.19,-281 107.19,-281 107.19,-281 111.52,-281 106.85,-285.5 116.85,-281"/>
<ellipse fill="none" stroke="black" cx="142.18" cy="-281" rx="4" ry="4"/>
<text text-anchor="middle" x="136.93" y="-274.35" font-family="Bitstream-Vera Sans" font-size="7.00">+ SSN</text>
<text text-anchor="middle" x="116.27" y="-274.35" font-family="Bitstream-Vera Sans" font-size="7.00">+ SSN</text>
</g>
<!-- artifactTable -->
<g id="node5" class="node">
<title>artifactTable</title>
<text text-anchor="start" x="43.5" y="-210.35" font-family="Bitstream-Vera Sans" font-size="7.00">artifactTable</text>
<polygon fill="none" stroke="black" points="41.5,-204 41.5,-206 82.25,-206 82.25,-204 41.5,-204"/>
<text text-anchor="start" x="43.5" y="-195.35" font-family="Bitstream-Vera Sans" font-size="7.00">&#45; ID</text>
<text text-anchor="start" x="43.5" y="-182.35" font-family="Bitstream-Vera Sans" font-size="7.00">&#45; ArtCode1</text>
<text text-anchor="start" x="43.5" y="-169.35" font-family="Bitstream-Vera Sans" font-size="7.00">&#45; ArtCode2</text>
<text text-anchor="start" x="43.5" y="-156.35" font-family="Bitstream-Vera Sans" font-size="7.00">&#45; ArtCode3</text>
<text text-anchor="start" x="43.5" y="-143.35" font-family="Bitstream-Vera Sans" font-size="7.00">&#45; SSN</text>
<text text-anchor="start" x="43.5" y="-130.35" font-family="Bitstream-Vera Sans" font-size="7.00">&#45; Count</text>
<text text-anchor="start" x="43.5" y="-117.35" font-family="Bitstream-Vera Sans" font-size="7.00">&#45; Where</text>
<polygon fill="none" stroke="black" points="40.5,-112 40.5,-220 83.25,-220 83.25,-112 40.5,-112"/>
</g>
<!-- artifactTable&#45;&gt;provTable -->
<g id="edge6" class="edge">
<title>artifactTable&#45;&gt;provTable</title>
<path fill="none" stroke="black" d="M146.23,-253.44C146.29,-253.51 146.36,-253.58 146.42,-253.64"/>
<polygon fill="black" stroke="black" points="98.24,-203.1 94.59,-192.75 94.56,-199.23 91.57,-196.1 91.57,-196.1 91.57,-196.1 94.56,-199.23 88.08,-198.96 98.24,-203.1"/>
<ellipse fill="none" stroke="black" cx="143.51" cy="-250.59" rx="4" ry="4"/>
<text text-anchor="middle" x="136.87" y="-247.2" font-family="Bitstream-Vera Sans" font-size="7.00">+ SSN</text>
<text text-anchor="middle" x="100.86" y="-188.97" font-family="Bitstream-Vera Sans" font-size="7.00">+ SSN</text>
</g>
<!-- artifactCodes -->
<g id="node6" class="node">
<title>artifactCodes</title>
<text text-anchor="start" x="153.62" y="-177.85" font-family="Bitstream-Vera Sans" font-size="7.00">artifactCodes</text>
<polygon fill="none" stroke="black" points="151.62,-171.5 151.62,-173.5 195.38,-173.5 195.38,-171.5 151.62,-171.5"/>
<text text-anchor="start" x="153.62" y="-162.85" font-family="Bitstream-Vera Sans" font-size="7.00">&#45; Code</text>
<text text-anchor="start" x="153.62" y="-149.85" font-family="Bitstream-Vera Sans" font-size="7.00">&#45; Description</text>
<polygon fill="none" stroke="black" points="150.62,-144.5 150.62,-187.5 196.38,-187.5 196.38,-144.5 150.62,-144.5"/>
</g>
<!-- artifactTable&#45;&gt;artifactCodes -->
<g id="edge4" class="edge">
<title>artifactTable&#45;&gt;artifactCodes</title>
<path fill="none" stroke="black" d="M142.45,-153.81C142.52,-153.82 142.58,-153.82 142.64,-153.83"/>
<polygon fill="black" stroke="black" points="101.44,-153.98 91.42,-149.52 96.11,-154 91.78,-154.02 91.78,-154.02 91.78,-154.02 96.11,-154 91.46,-158.52 101.44,-153.98"/>
<ellipse fill="none" stroke="black" cx="138.36" cy="-153.34" rx="4" ry="4"/>
<text text-anchor="middle" x="131.21" y="-156.2" font-family="Bitstream-Vera Sans" font-size="7.00">+ Code</text>
<text text-anchor="middle" x="109.11" y="-147.37" font-family="Bitstream-Vera Sans" font-size="7.00">+ ArtCode1</text>
</g>
<!-- artifactTable&#45;&gt;artifactCodes -->
<g id="edge5" class="edge">
<title>artifactTable&#45;&gt;artifactCodes</title>
<path fill="none" stroke="black" d="M100.39,-166C111.22,-166 123.05,-166 133.95,-166"/>
<polygon fill="black" stroke="black" points="101.44,-166 91.44,-161.5 96.11,-166 91.78,-166 91.78,-166 91.78,-166 96.11,-166 91.44,-170.5 101.44,-166"/>
<ellipse fill="none" stroke="black" cx="138.33" cy="-166" rx="4" ry="4"/>
<text text-anchor="middle" x="131.21" y="-168.35" font-family="Bitstream-Vera Sans" font-size="7.00">+ Code</text>
<text text-anchor="middle" x="109.11" y="-168.35" font-family="Bitstream-Vera Sans" font-size="7.00">+ ArtCode2</text>
</g>
<!-- artifactTable&#45;&gt;artifactCodes -->
<g id="edge7" class="edge">
<title>artifactTable&#45;&gt;artifactCodes</title>
<path fill="none" stroke="black" d="M100.39,-178.88C111.22,-179.68 123.05,-179.7 133.95,-178.96"/>
<polygon fill="black" stroke="black" points="101.39,-178.98 91.88,-173.53 96.08,-178.46 91.77,-178.04 91.77,-178.04 91.77,-178.04 96.08,-178.46 91,-182.49 101.39,-178.98"/>
<ellipse fill="none" stroke="black" cx="138.35" cy="-178.56" rx="4" ry="4"/>
<text text-anchor="middle" x="131.21" y="-180.5" font-family="Bitstream-Vera Sans" font-size="7.00">+ Code</text>
<text text-anchor="middle" x="109.11" y="-180.33" font-family="Bitstream-Vera Sans" font-size="7.00">+ ArtCode3</text>
</g>
<!-- interpTable -->
<g id="node7" class="node">
<title>interpTable</title>
<text text-anchor="start" x="45.38" y="-76.35" font-family="Bitstream-Vera Sans" font-size="7.00">interpTable</text>
<polygon fill="none" stroke="black" points="43.38,-70 43.38,-72 80.38,-72 80.38,-70 43.38,-70"/>
<text text-anchor="start" x="45.38" y="-61.35" font-family="Bitstream-Vera Sans" font-size="7.00">&#45; ID</text>
<text text-anchor="start" x="45.38" y="-48.35" font-family="Bitstream-Vera Sans" font-size="7.00">&#45; SSN</text>
<text text-anchor="start" x="45.38" y="-35.35" font-family="Bitstream-Vera Sans" font-size="7.00">&#45; Code</text>
<text text-anchor="start" x="45.38" y="-22.35" font-family="Bitstream-Vera Sans" font-size="7.00">&#45; Variable</text>
<text text-anchor="start" x="45.38" y="-9.35" font-family="Bitstream-Vera Sans" font-size="7.00">&#45; Where</text>
<polygon fill="none" stroke="black" points="42.38,-4 42.38,-86 81.38,-86 81.38,-4 42.38,-4"/>
</g>
<!-- interpTable&#45;&gt;provTable -->
<g id="edge9" class="edge">
<title>interpTable&#45;&gt;provTable</title>
<path fill="none" stroke="black" d="M96.27,-83.02C100.04,-88.2 103.61,-93.6 106.62,-99 130.1,-140.95 126.22,-155.81 142.62,-201 145.06,-207.71 147.64,-214.73 150.22,-221.7"/>
<polygon fill="black" stroke="black" points="95.62,-82.17 93.12,-71.49 92.38,-77.93 89.75,-74.49 89.75,-74.49 89.75,-74.49 92.38,-77.93 85.97,-76.96 95.62,-82.17"/>
<ellipse fill="none" stroke="black" cx="151.67" cy="-225.62" rx="4" ry="4"/>
<text text-anchor="middle" x="143.49" y="-223.19" font-family="Bitstream-Vera Sans" font-size="7.00">+ SSN</text>
<text text-anchor="middle" x="99.09" y="-67.31" font-family="Bitstream-Vera Sans" font-size="7.00">+ SSN</text>
</g>
<!-- interpCodes -->
<g id="node8" class="node">
<title>interpCodes</title>
<text text-anchor="start" x="155.5" y="-56.85" font-family="Bitstream-Vera Sans" font-size="7.00">interpCodes</text>
<polygon fill="none" stroke="black" points="152.75,-50.5 152.75,-52.5 194.25,-52.5 194.25,-50.5 152.75,-50.5"/>
<text text-anchor="start" x="154.75" y="-41.85" font-family="Bitstream-Vera Sans" font-size="7.00">&#45; Code</text>
<text text-anchor="start" x="154.75" y="-28.85" font-family="Bitstream-Vera Sans" font-size="7.00">&#45; Description</text>
<polygon fill="none" stroke="black" points="151.75,-23.5 151.75,-66.5 195.25,-66.5 195.25,-23.5 151.75,-23.5"/>
</g>
<!-- interpTable&#45;&gt;interpCodes -->
<g id="edge8" class="edge">
<title>interpTable&#45;&gt;interpCodes</title>
<path fill="none" stroke="black" d="M143.36,-45C143.43,-45 143.5,-45 143.56,-45"/>
<polygon fill="black" stroke="black" points="99.47,-45 89.47,-40.5 94.13,-45 89.8,-45 89.8,-45 89.8,-45 94.13,-45 89.47,-49.5 99.47,-45"/>
<ellipse fill="none" stroke="black" cx="139.26" cy="-45" rx="4" ry="4"/>
<text text-anchor="middle" x="132.14" y="-38.35" font-family="Bitstream-Vera Sans" font-size="7.00">+ Code</text>
<text text-anchor="middle" x="100.76" y="-38.35" font-family="Bitstream-Vera Sans" font-size="7.00">+ Code</text>
</g>
<!-- totalsTable -->
<g id="node9" class="node">
<title>totalsTable</title>
<text text-anchor="start" x="45.75" y="-414.35" font-family="Bitstream-Vera Sans" font-size="7.00">totalsTable</text>
<polygon fill="none" stroke="black" points="43.75,-408 43.75,-410 80,-410 80,-408 43.75,-408"/>
<text text-anchor="start" x="45.75" y="-399.35" font-family="Bitstream-Vera Sans" font-size="7.00">&#45; ID</text>
<text text-anchor="start" x="45.75" y="-386.35" font-family="Bitstream-Vera Sans" font-size="7.00">&#45; SSN</text>
<text text-anchor="start" x="45.75" y="-373.35" font-family="Bitstream-Vera Sans" font-size="7.00">&#45; Count</text>
<text text-anchor="start" x="45.75" y="-360.35" font-family="Bitstream-Vera Sans" font-size="7.00">&#45; Variable</text>
<text text-anchor="start" x="45.75" y="-347.35" font-family="Bitstream-Vera Sans" font-size="7.00">&#45; Where</text>
<polygon fill="none" stroke="black" points="42.75,-342 42.75,-424 81,-424 81,-342 42.75,-342"/>
</g>
<!-- totalsTable&#45;&gt;provTable -->
<g id="edge10" class="edge">
<title>totalsTable&#45;&gt;provTable</title>
<path fill="none" stroke="black" d="M146.3,-305.38C146.37,-305.32 146.43,-305.25 146.5,-305.19"/>
<polygon fill="black" stroke="black" points="96.42,-351.79 86.03,-355.31 92.52,-355.42 89.34,-358.37 89.34,-358.37 89.34,-358.37 92.52,-355.42 92.16,-361.89 96.42,-351.79"/>
<ellipse fill="none" stroke="black" cx="143.41" cy="-308.06" rx="4" ry="4"/>
<text text-anchor="middle" x="136.96" y="-298.35" font-family="Bitstream-Vera Sans" font-size="7.00">+ SSN</text>
<text text-anchor="middle" x="98.6" y="-352.18" font-family="Bitstream-Vera Sans" font-size="7.00">+ SSN</text>
</g>
</g>
</svg>
